<svg width="100" height="100" viewBox="0 0 100 100" fill="none" xmlns="http://www.w3.org/2000/svg">
<path d="M46.4645 3.53553C48.4171 1.58291 51.5829 1.58291 53.5355 3.53553L96.4645 46.4645C98.4171 48.4171 98.4171 51.5829 96.4645 53.5355L53.5355 96.4645C51.5829 98.4171 48.4171 98.4171 46.4645 96.4645L3.53553 53.5355C1.58291 51.5829 1.58291 48.4171 3.53553 46.4645L46.4645 3.53553Z" fill="#D6E5FD"/>
<path d="M50 37.5C50.5525 37.5 51.0824 37.7195 51.4731 38.1102C51.8638 38.5009 52.0833 39.0308 52.0833 39.5833V47.9167H56.25C56.8025 47.9167 57.3324 48.1362 57.7231 48.5269C58.1138 48.9176 58.3333 49.4475 58.3333 50C58.3333 50.5525 58.1138 51.0824 57.7231 51.4731C57.3324 51.8638 56.8025 52.0833 56.25 52.0833H50C49.4475 52.0833 48.9176 51.8638 48.5269 51.4731C48.1362 51.0824 47.9167 50.5525 47.9167 50V39.5833C47.9167 39.0308 48.1362 38.5009 48.5269 38.1102C48.9176 37.7195 49.4475 37.5 50 37.5Z" fill="#2D76F9"/>
<path opacity="0.5" d="M29.1667 49.9998C29.1667 54.1203 30.3885 58.1482 32.6777 61.5742C34.9669 65.0002 38.2206 67.6705 42.0274 69.2473C45.8342 70.8242 50.0231 71.2367 54.0644 70.4329C58.1057 69.629 61.8178 67.6448 64.7314 64.7312C67.645 61.8176 69.6292 58.1055 70.433 54.0642C71.2369 50.0229 70.8243 45.8341 69.2475 42.0273C67.6707 38.2205 65.0004 34.9667 61.5744 32.6776C58.1484 30.3884 54.1204 29.1665 50 29.1665C47.2641 29.1665 44.555 29.7054 42.0274 30.7523C39.4998 31.7993 37.2032 33.3339 35.2686 35.2684C31.3616 39.1755 29.1667 44.4745 29.1667 49.9998ZM47.9167 39.5832C47.9167 39.0306 48.1362 38.5007 48.5269 38.11C48.9176 37.7193 49.4475 37.4998 50 37.4998C50.5525 37.4998 51.0824 37.7193 51.4731 38.11C51.8638 38.5007 52.0833 39.0306 52.0833 39.5832V47.9165H56.25C56.8025 47.9165 57.3324 48.136 57.7231 48.5267C58.1138 48.9174 58.3333 49.4473 58.3333 49.9998C58.3333 50.5524 58.1138 51.0823 57.7231 51.473C57.3324 51.8637 56.8025 52.0832 56.25 52.0832H50C49.4475 52.0832 48.9176 51.8637 48.5269 51.473C48.1362 51.0823 47.9167 50.5524 47.9167 49.9998V39.5832Z" fill="#2D76F9"/>
</svg>
